<?xml version="1.0" encoding="UTF-8"?>
<svg xmlns="http://www.w3.org/2000/svg" width="1200" height="700" viewBox="0 0 1200 700">
  <rect width="100%" height="100%" fill="#000000"/>
  <g opacity="0.9">
    <path d="M120 520 L260 450 L330 500 L180 580 Z" fill="none" stroke="#d62828" stroke-width="28" stroke-linecap="round"/>
    <path d="M920 260 L1080 200 L1140 250 L980 320 Z" fill="none" stroke="#d62828" stroke-width="28" stroke-linecap="round"/>
  </g>
  <text x="600" y="390" text-anchor="middle"
        font-family="Arial, sans-serif"
        font-size="220"
        font-weight="900"
        fill="#ffffff">جیپو</text>

  <rect x="395" y="430" width="150" height="42" rx="8" fill="#d62828"/>
  <rect x="585" y="430" width="90" height="42" rx="8" fill="#d62828"/>
  <rect x="700" y="430" width="90" height="42" rx="8" fill="#d62828"/>
  <rect x="930" y="430" width="90" height="42" rx="8" fill="#d62828"/>

  <text x="600" y="610" text-anchor="middle"
        font-family="Arial, sans-serif"
        font-size="78"
        font-weight="800"
        fill="#ffffff">آفرود استوک</text>

  <g transform="translate(520,110) scale(0.9)">
    <rect x="0" y="40" width="170" height="65" rx="12" fill="#cfcfcf"/>
    <rect x="25" y="0" width="90" height="50" rx="8" fill="#cfcfcf"/>
    <circle cx="40" cy="120" r="24" fill="#444"/>
    <circle cx="140" cy="120" r="24" fill="#444"/>
    <rect x="40" y="-20" width="70" height="12" fill="#cfcfcf"/>
    <rect x="55" y="-40" width="40" height="20" fill="#d62828"/>
  </g>
</svg>